<svg width="46" height="16" viewBox="0 0 46 16" fill="none" xmlns="http://www.w3.org/2000/svg">
<path d="M17.4709 1.16752L11.7423 15.2705H7.95976L5.05169 4.01586C4.87509 3.32265 4.72324 3.06869 4.19502 2.77663C3.33286 2.30069 1.91037 1.85462 0.65939 1.57762L0.742264 1.16776L6.83103 1.16776C7.60714 1.16776 8.30742 1.69449 8.48808 2.60568L10.0348 10.7662L13.7118 1.16752L17.4709 1.16752ZM32.3382 10.6658C32.3352 6.94368 27.2707 6.73863 27.2974 5.0759C27.3058 4.56987 27.7757 4.03185 28.8095 3.89452C29.3219 3.8261 30.7343 3.77389 32.3403 4.52566L32.9541 1.53506C32.0916 1.21667 30.9823 0.910034 29.604 0.910034C26.0671 0.910034 23.5873 2.82695 23.5798 5.57183C23.5668 7.60209 25.3719 8.73503 26.7309 9.40967C28.129 10.1005 28.5991 10.5445 28.5968 11.1625C28.5915 12.1085 27.4911 12.5261 26.4609 12.5425C24.6625 12.5708 23.6162 12.0464 22.7824 11.652L22.1489 14.7416C22.9869 15.1327 24.5318 15.4739 26.1319 15.491C29.8911 15.4908 32.341 13.5979 32.3382 10.6658ZM41.7004 15.2705H45.0099L42.0522 1.16752L38.9975 1.16752C38.3107 1.16752 37.7333 1.57527 37.4799 2.20217L32.1739 15.2705H35.9313L36.6671 13.1638L41.2581 13.1638L41.7004 15.2705ZM37.6833 10.2734L39.5409 4.97832L40.6508 10.2734H37.6833ZM22.5838 1.16752L19.6938 15.2705H16.1155L19.0067 1.16752L22.5838 1.16752Z" fill="white"/>
</svg>
