<svg width="34" height="35" viewBox="0 0 34 35" fill="none" xmlns="http://www.w3.org/2000/svg">
<g clip-path="url(#clip0_202_943)">
<path d="M26.3829 11.5942C26.1564 11.3741 25.8387 11.2741 25.5277 11.3253C25.2162 11.3762 24.9472 11.5718 24.8027 11.8524C24.3057 12.8179 23.6745 13.7051 22.9318 14.4895C23.0058 13.9229 23.0431 13.3529 23.0431 12.7814C23.0431 11.6848 22.8961 10.5564 22.6061 9.42704C21.6527 5.71752 19.1525 2.58042 15.7468 0.820189C15.4503 0.66699 15.097 0.672369 14.8053 0.834533C14.5136 0.996764 14.3226 1.2942 14.2964 1.62689C14.0309 4.99794 12.2945 8.06485 9.52981 10.0432C9.49322 10.0696 9.4569 10.0963 9.42057 10.1228C9.34534 10.1779 9.27441 10.23 9.20814 10.2737C9.19778 10.2806 9.18749 10.2876 9.17739 10.2948C7.43861 11.5398 6.00391 13.1992 5.0282 15.0944C4.03675 17.0221 3.53406 19.0907 3.53406 21.2426C3.53406 22.3389 3.68101 23.4673 3.97088 24.5969C5.50055 30.5507 10.8585 34.7089 17.0004 34.7089C24.4253 34.7089 30.4659 28.6679 30.4659 21.2426C30.4659 17.581 29.0159 14.1544 26.3829 11.5942Z" fill="#FF5555"/>
<circle cx="16" cy="20.709" r="4" fill="white"/>
</g>
<defs>
<clipPath id="clip0_202_943">
<rect width="34" height="34" fill="white" transform="translate(0 0.708984)"/>
</clipPath>
</defs>
</svg>
