<svg width="135" height="48" viewBox="0 0 135 48" fill="none" xmlns="http://www.w3.org/2000/svg">
<path d="M73.3276 40.8948C74.3873 40.8948 75.3247 40.6898 76.1399 40.2797C76.955 39.8481 77.5766 39.2006 78.0045 38.3373V40.5063H82.284V22.8307H77.6988V33.1577C77.6988 34.172 77.4135 34.9921 76.8429 35.618C76.2723 36.2223 75.5387 36.5244 74.642 36.5244C73.7454 36.5244 73.0117 36.2223 72.4411 35.618C71.8705 34.9921 71.5852 34.172 71.5852 33.1577V22.8307H67V33.5461C67 35.7475 67.54 37.528 68.6201 38.8877C69.7206 40.2257 71.2897 40.8948 73.3276 40.8948Z" fill="black"/>
<path d="M85.6353 21.2444H90.2205V16.3885H85.6353V21.2444ZM85.6353 40.5063H90.2205V22.8307H85.6353V40.5063Z" fill="black"/>
<path d="M95.5933 40.5063H100.179V27.0392H103.755V22.8307H100.179V22.5717C100.179 20.9962 101.045 20.2085 102.777 20.2085C103.062 20.2085 103.398 20.2409 103.786 20.3056V16.1619C103.317 16.054 102.777 16 102.165 16C100.087 16 98.4667 16.5719 97.3052 17.7158C96.1639 18.8596 95.5933 20.4783 95.5933 22.5717V22.8307H92.7811V27.0392H95.5933V40.5063Z" fill="black"/>
<path d="M106.114 40.5063H110.699V30.9887C110.699 29.6722 111.045 28.6578 111.738 27.9456C112.431 27.2118 113.338 26.8449 114.459 26.8449H115.895V22.6364H114.917C113.898 22.6364 112.991 22.8415 112.197 23.2515C111.422 23.64 110.821 24.3846 110.393 25.4853V22.8307H106.114V40.5063Z" fill="black"/>
<path d="M120.503 47.6931C123.56 47.6931 125.771 45.8478 127.137 42.1573L134.289 22.8307H129.368L125.425 34.1936L121.481 22.8307H116.56L123.132 40.5063L122.826 41.2509C122.582 41.8336 122.266 42.3516 121.879 42.8048C121.492 43.258 120.85 43.4846 119.953 43.4846C119.219 43.4846 118.526 43.3767 117.874 43.1609V47.1428C118.221 47.337 118.618 47.4773 119.067 47.5636C119.535 47.6499 120.014 47.6931 120.503 47.6931Z" fill="black"/>
<g clip-path="url(#clip0_202_720)">
<path d="M26.988 11.8756C26.7563 11.6372 26.4313 11.5288 26.1132 11.5842C25.7946 11.6394 25.5194 11.8513 25.3716 12.1553C24.8632 13.2012 24.2175 14.1624 23.4577 15.0121C23.5335 14.3983 23.5716 13.7808 23.5716 13.1617C23.5716 11.9738 23.4213 10.7513 23.1246 9.52781C22.1493 5.50916 19.5918 2.11064 16.108 0.203724C15.8047 0.0377582 15.4433 0.0435854 15.1449 0.219263C14.8465 0.395013 14.651 0.717232 14.6243 1.07765C14.3527 4.72962 12.5765 8.0521 9.74838 10.1953C9.71095 10.2239 9.6738 10.2528 9.63664 10.2816C9.55968 10.3412 9.48713 10.3976 9.41933 10.445C9.40874 10.4525 9.39821 10.4601 9.38788 10.4679C7.60922 11.8166 6.14161 13.6144 5.14352 15.6675C4.12934 17.7558 3.61511 19.9968 3.61511 22.328C3.61511 23.5156 3.76544 24.7381 4.06195 25.9618C5.6267 32.4117 11.1075 36.9165 17.3903 36.9165C24.9855 36.9165 31.1647 30.3721 31.1647 22.328C31.1647 18.3613 29.6814 14.6492 26.988 11.8756Z" fill="#FF5555"/>
<ellipse cx="16.367" cy="21.7498" rx="4.09174" ry="4.33333" fill="white"/>
</g>
<defs>
<clipPath id="clip0_202_720">
<rect width="34.7798" height="36.8333" fill="white" transform="translate(0 0.083252)"/>
</clipPath>
</defs>
</svg>
